<svg id="Capa_1" enable-background="new 0 0 496.357 496.357" height="512" viewBox="0 0 496.357 496.357" width="512" xmlns="http://www.w3.org/2000/svg"><g><path d="m36.179 215.357c-11.05 0-20-8.95-20-20v-46c0-11.05 8.95-20 20-20h424c11.05 0 20 8.95 20 20v46c0 11.05-8.95 20-20 20z" fill="#fad207"/><path d="m279.678 253.857h.001z"/><g><path d="m74.179 496.357c-11.05 0-20-8.95-20-20v-261h388v261c0 11.05-8.95 20-20 20z" fill="#fad207"/></g><path d="m56.179 215.357h-20c-11.05 0-20-8.95-20-20v-46c0-11.05 8.95-20 20-20h20c-11.05 0-20 8.95-20 20v46c0 11.05 8.95 20 20 20z" fill="#faa515"/><path d="m94.179 496.357h-20c-11.05 0-20-8.95-20-20v-261h20v261c0 11.05 8.95 20 20 20z" fill="#faa515"/><path d="m299.178 129.357v86h-101.999v-86l50.81-5z" fill="#fd646f"/><path d="m197.179 456.357h-93c-5.52 0-10-4.48-10-10v-177c0-5.52 4.48-10 10-10h93 102 93c5.52 0 10 4.48 10 10v177c0 5.52-4.48 10-10 10h-93z" fill="#faa515"/><path d="m54.179 215.357h388v20h-388z" fill="#faa515"/><g><g fill="#fd646f"><path d="m288.008 60.9v.01c-1.11 1.47-2.14 3.02-3.08 4.67l-13.19 23.04-23.75 40.98-19.42-33.7-16.64-30.15c-1.12-2.06-2.38-3.99-3.75-5.78-10.49-25.78 5.72-56.03 34.37-59.6 1.96-.25 3.96-.37 5.98-.37.66 0 1.32.01 1.98.04 30.79 1.25 49.31 33.66 37.5 60.86z"/><path d="m320.878 129.7-25.52-.1h-47.37l23.75-40.98 13.19-23.04c.94-1.65 1.97-3.2 3.08-4.67v-.01c6.1-8.1 14.5-13.45 23.58-15.89 16.14-4.36 34.42.47 45.65 15.34 1.19 1.58 2.3 3.24 3.31 5 .33.57.65 1.15.95 1.73 15.27 29.16-7.71 63.43-40.62 62.62z"/><path d="m247.988 129.6-23.12-.05-24.24-.06-26.55.08c-31.01.08-52.75-31.49-40.64-60.04.77-1.82 1.67-3.61 2.68-5.36.33-.58.67-1.14 1.03-1.69 10.82-17.05 30.58-22.83 47.88-18.07 8.89 2.44 17.12 7.66 23.15 15.56 1.37 1.79 2.63 3.72 3.75 5.78l16.64 30.15z"/></g><path d="m311.588 45.01c-.15 6.64-1.34 13.27-3.58 19.64 0 0-26.407 48.02-36.91 64.95h-23.11l23.75-40.98 13.19-23.04c.94-1.65 1.97-3.2 3.08-4.67v-.01c6.1-8.1 14.5-13.45 23.58-15.89z" fill="#fc4755"/><path d="m228.568 95.9 19.42 33.7-23.12-.05c-9.972-16.862-25.344-45.223-35.22-62.04-3-7.39-4.53-15.23-4.62-23.1 8.89 2.44 17.12 7.66 23.15 15.56 1.37 1.79 2.63 3.72 3.75 5.78z" fill="#fc4755"/></g><path d="m197.179 215.357h102v281h-102z" fill="#fd646f"/><g fill="#fc4755"><path d="m197.179 215.357h102v20h-102z"/><path d="m197.179 129.857h102v20h-102z"/></g></g></svg>